Coordinates
version=1
nRows=12
nColumns=24
inDegrees=yes

Units are S.I. units (second, meters, Newtons, ...)
If the header above contains a line with 'inDegrees', this indicates whether rotational values are in degrees (yes) or radians (no).

endheader
time	pelvis_tilt	pelvis_list	pelvis_rotation	pelvis_tx	pelvis_ty	pelvis_tz	hip_flexion_r	hip_adduction_r	hip_rotation_r	knee_angle_r	ankle_angle_r	subtalar_angle_r	mtp_angle_r	hip_flexion_l	hip_adduction_l	hip_rotation_l	knee_angle_l	ankle_angle_l	subtalar_angle_l	mtp_angle_l	lumbar_extension	lumbar_bending	lumbar_rotation
      1.50000000000000000000	     12.26293833371328467763	     -2.03203657886016308964	      3.48027985614104995449	      0.58653291635572746276	      1.05469088002326860654	     -0.00975492041579351793	     -2.30872811639074537737	     -5.27804460873528213938	    -10.70931022825733514026	    -67.86894022374431756361	     -2.28303573234031631500	      3.96929075595784652819	     -7.55812530206529409327	      1.17030773766332774066	     -0.94126822783906927139	      7.99960339647652229900	    -13.10125766753718679070	     -6.33397643627450168680	      7.25770240478488481983	     20.75902768823397437359	    -26.56793342576563077273	      2.13520643700987466929	     -6.58823823834219890472
      1.51699999999999990408	     12.34130934412194946503	     -1.21079951902883431458	      4.12347843221811505288	      0.58593919742124023209	      1.05729267418188688232	     -0.01206987781338047724	     -0.23834356312165291825	     -6.38165508058884878295	    -11.13240996671994587075	    -69.16601985871521662830	     -0.01040129133578362140	      4.23905155739307115681	     -7.55941432273110347495	     -0.77231473756081159276	     -0.08088890752949570717	      8.82726294547109446853	    -11.83326952646906704558	     -5.95533899307638403542	      6.86570362943160628078	     20.59001031584933727459	    -26.54777023787961098833	      1.61227545460568566504	     -7.65218954570856180197
      1.53299999999999991829	     12.07977487812748229601	     -0.50479780071732016644	      6.06423023398492944125	      0.58434980524091217902	      1.05900842098197789376	     -0.01603206477145725090	      1.85278140105504762758	     -7.38440848405295557910	    -13.07543225658832142244	    -69.48198743962167611699	      1.18937785592550238079	      4.46147751358906763386	     -8.16493666693065911488	     -2.05521974108735827613	      0.62657044968277919583	     11.40095790007327991589	    -10.68002607222553912436	     -6.04480781498266406260	      5.81651476622287688656	     20.25940378735926117315	    -26.28996830915873417212	      1.70069973901093662860	    -10.26911608647908913383
      1.55000000000000004441	     12.02968979147969896815	      0.08717763601706630949	      7.15475161569489959135	      0.58279787830536011750	      1.06076266805336660859	     -0.01785538622839804093	      3.69545489886134248536	     -8.18314327029571231265	    -13.71150021081984959892	    -69.28211322579718967063	      2.96533748228848814676	      5.75071500967512871938	     -8.38075510069603346608	     -3.55110341534603302094	      1.01505726025153575343	     12.01360334215540426328	     -9.66762882837255510537	     -5.98142550083444746178	      6.03452394668021341317	     20.12963706799809671111	    -26.21726527539374274056	      1.47106064418659610027	    -11.68978163936738212669
      1.56699999999999994849	     11.62720246530511580829	      0.26023676956083041656	      8.30552137888769692609	      0.58082071144325175815	      1.06197394052620386340	     -0.01939515339132799956	      5.74129327523886345830	     -8.48921343881926127040	    -14.55415084280852688892	    -67.82491904870734344968	      3.93078964735696567701	      6.19232419874939044036	    -11.40935993286440108818	     -4.54927066987969652700	      0.91511632694808420219	     12.93406960815977413404	     -8.80266393310279227080	     -5.56460454624652989253	      6.40500813464152241039	     19.15241886223200395989	    -25.84846670954242142670	      1.64743600079135887881	    -12.94059157475233412526
      1.58299999999999996270	     11.89644230499981425453	      0.38855088830112249898	      8.97806119335205998766	      0.57951361867746464807	      1.06400516075407747252	     -0.01925752752291908995	      6.75350297194342630291	     -8.48800744596813672160	    -14.58130845355487004156	    -65.32604200245131664815	      4.58231240161090180862	      7.75647614937693852255	    -11.23022934003397566016	     -6.19793554870790419642	      0.55258471363536754151	     12.35856817741663959964	     -8.43855240497623171336	     -4.57451949968375704003	      8.05370964482260909278	     19.10842621825510789790	    -26.14596524607419425479	      1.64709553766939276187	    -13.75856708057512811649
      1.60000000000000008882	     11.83516768147963205138	      0.58966532403343918656	      9.54183516347517723943	      0.57734719375358800608	      1.06504937941561617087	     -0.01929068968892156191	      8.14000500286338812828	     -8.61167546711091880240	    -14.62838438784947392435	    -62.06875035181973743192	      4.18787518169060213324	      7.98275209415023656589	    -10.92878570707364893622	     -7.48538468262754719262	      0.36378041036192287905	     12.05721835299662458851	     -7.72434517797335118416	     -4.15234590181024465494	      9.25504254109986845833	     18.88244276819144218393	    -26.23487850774407093013	      1.62492302664961507652	    -14.29106119029824206734
      1.61699999999999999289	     11.53183917287825366316	      0.91951768852354232031	     10.28238595420815215675	      0.57371261905535386738	      1.06515563050896799879	     -0.02076097828257814776	      9.49892374374643466695	     -9.11627640542674377855	    -14.99986109429914904467	    -58.33485610029565293644	      3.84913204794816232734	      8.47109808076898396223	    -10.73952525648163103256	     -8.42775183122687288062	      0.43161296262086867870	     12.99530836468682970519	     -7.02450838645327735321	     -3.99994892346476094147	      9.38161666965348040037	     18.72374532731688034914	    -26.21832002889923529665	      1.61802782288526114662	    -14.90885742480181797021
      1.63300000000000000711	     11.53536830063827522963	      0.81023889053526443327	     10.40257207815598405887	      0.57229856077517715640	      1.06550162126324110545	     -0.02005216675979552138	     10.23950224971101441440	     -8.71293440238877181514	    -14.61026810730989033971	    -53.55293866804237268298	      3.38298054887938137725	      8.24237221967160849090	    -10.37581116791743873762	     -9.68688016565915610556	     -0.05047474199648561283	     11.82055306394112470514	     -6.76821438885604553803	     -2.94800450873171149269	     10.92183281342048850604	     18.57845487087399405368	    -26.21122139802940154141	      1.74008750133741862953	    -15.12379642612186003703
      1.64999999999999991118	     11.64920979188414307259	      0.90998234872454819566	     10.70970324968953413247	      0.57015835928646996233	      1.06564542058751365872	     -0.01994028128125067273	     10.40198256665431131296	     -8.48215011038292843182	    -14.44637604167157363122	    -47.83948943295013123134	      2.65263675040911550695	      7.12558525318965063633	     -9.92172135280113565159	    -11.10286516697262193532	     -0.37320699261776885125	     11.49666474021910111958	     -6.24322755605678025859	     -2.35572815025383075493	     11.94960455144659050575	     18.31817579263002571111	    -26.44098022028666861161	      1.81103380348791875853	    -15.43171201074456355684
      1.66700000000000003730	     12.55513622073992685557	      0.85411835388222989707	     11.37988746284109353724	      0.56863764820155304758	      1.06687377493016444241	     -0.01960743483424057937	      8.97137312134763043048	     -7.78801304167254482280	    -14.48402606615644927501	    -40.60225523090014831951	      0.79969668965768503366	      5.77157926904838536331	     -9.38433697788226872660	    -13.45379130834227154878	     -1.22677257637250702871	     11.59782261909380274290	     -5.31971090942066204832	     -1.96516493417844539948	     12.98351318911039165016	     18.09149850287227678791	    -27.49337075104862293529	      2.25891523415403039365	    -16.00821169449493552861
      1.68300000000000005151	     11.94912257339206007600	      1.71416863791886964208	     10.58145498413088247958	      0.56615881255888933499	      1.06424920120457033867	     -0.01778438527280836595	      9.87867173054746139371	     -8.33020475510620883597	    -13.02945194364745518101	    -34.67627009824271766547	     -0.32538512417210646577	      3.95379199026180350174	     -9.47260030872103975241	    -14.19845403892388446820	     -0.32390476089322017827	     11.10793690975105896257	     -5.13001962543584255627	     -1.42763995533663168302	     12.65007205511604304604	     18.03632655767168202487	    -27.22359945898251964991	      0.98628827356062698239	    -15.60028357463096604363
